# xmcd
#
# Track frame offsets:
#	150
#	24765
#	37902
#	48205
#	63090
#	89685
#	104677
#	117695
#	128482
#	141552
#	157737
#	168362
#	190642
#
# Disc length: 2683 seconds
#
# Revision: 1
# Processed by: cddbd v1.5.2PL0 Copyright (c) Steve Scherf et al.
# Submitted via: audiograbber 1.83.01
#
DISCID=a40a790d
DTITLE=soul energy - the first
DYEAR=1900
DGENRE=soul
TTITLE0=bright side of the road
TTITLE1=soul man
TTITLE2=soul finger
TTITLE3=not that kind
TTITLE4=mustang sally
TTITLE5=in the midnight hour
TTITLE6=knock on wood
TTITLE7=sweet soul music
TTITLE8=respect
TTITLE9=Trackwhy did you do it
TTITLE10=shoop shoop song
TTITLE11=play that funky music
TTITLE12=hold on
EXTD=
EXTT0=
EXTT1=
EXTT2=
EXTT3=
EXTT4=
EXTT5=
EXTT6=
EXTT7=
EXTT8=
EXTT9=
EXTT10=
EXTT11=
EXTT12=
PLAYORDER=
